<svg version="1.1" viewBox="0 0 640 400" xmlns="http://www.w3.org/2000/svg" xmlns:xlink="http://www.w3.org/1999/xlink" xmlns:svgjs="http://svgjs.dev/svgjs" matcher="0.37196256997631005"><g viewBox="0 0 640 400" matcher="0.37196256997631005"><g matcher="0.37196256997631005"><g matcher="0.37196256997631005"><g matcher="0.37196256997631005"><svg viewBox="0 0 640 400" data-background-color="#ffffff" preserveAspectRatio="xMidYMid meet" height="400" width="640" xmlns="http://www.w3.org/2000/svg" xmlns:xlink="http://www.w3.org/1999/xlink"><rect width="640" height="400" x="0" y="0" opacity="1" fill="#ffffff" fill-opacity="0" data-fill-palette-color="background" id="background"></rect><g id="tight-bounds" transform="matrix(1,0,0,1,122.24000000000001,76.4)"><svg viewBox="0 0 395.52 247.2" height="247.2" width="395.52"><g><svg></svg></g><g><svg viewBox="0 0 395.52 247.2" height="247.2" width="395.52"><g transform="matrix(1,0,0,1,75.54432,59.51687191011236)"><svg viewBox="0 0 244.43135999999998 128.16625617977527" height="128.16625617977527" width="244.43135999999998"><g><svg viewBox="0 0 244.43135999999998 128.16625617977527" height="128.16625617977527" width="244.43135999999998"><g><svg viewBox="0 0 244.43135999999998 128.16625617977527" height="128.16625617977527" width="244.43135999999998"><g id="textblocktransform"><svg viewBox="0 0 244.43135999999998 128.16625617977527" height="128.16625617977527" width="244.43135999999998" id="textblock"><g><svg viewBox="0 0 244.43135999999998 128.16625617977527" height="128.16625617977527" width="244.43135999999998"><g transform="matrix(1,0,0,1,0,0)"><svg width="244.43135999999998" viewBox="4.800000190734863 -28 53.400001525878906 28" height="128.16625617977527" data-palette-color="#000000"><path d="M12-4L15-4Q15.2-3.2 15.2-2L15.2-2Q15.2-0.85 15 0L15 0 5 0Q4.8-0.85 4.8-2L4.8-2Q4.8-3.2 5-4L5-4 8-4Q7.8-4.85 7.8-6L7.8-6Q7.8-7.2 8-8L8-8Q7.8-8.85 7.8-10L7.8-10Q7.8-11.2 8-12L8-12Q7.8-12.85 7.8-14L7.8-14Q7.8-15.2 8-16L8-16Q7.8-16.85 7.8-18L7.8-18Q7.8-19.2 8-20L8-20Q7.8-20.85 7.8-22L7.8-22Q7.8-23.2 8-24L8-24 5-24Q4.8-24.85 4.8-26L4.8-26Q4.8-27.2 5-28L5-28 15-28Q15.2-27.2 15.2-26L15.2-26Q15.2-24.85 15-24L15-24 12-24Q12.2-23.2 12.2-22L12.2-22Q12.2-20.85 12-20L12-20Q12.2-19.2 12.2-18L12.2-18Q12.2-16.85 12-16L12-16Q12.2-15.2 12.2-14L12.2-14Q12.2-12.85 12-12L12-12Q12.2-11.2 12.2-10L12.2-10Q12.2-8.85 12-8L12-8Q12.2-7.2 12.2-6L12.2-6Q12.2-4.85 12-4L12-4ZM38-4Q38.2-3.2 38.2-2L38.2-2Q38.2-0.85 38 0L38 0 24 0Q23.8-0.85 23.8-2L23.8-2Q23.8-3.2 24-4L24-4Q23.8-4.85 23.8-6L23.8-6Q23.8-7.2 24-8L24-8Q23.8-8.85 23.8-10L23.8-10Q23.8-11.2 24-12L24-12Q23.8-12.85 23.8-14L23.8-14Q23.8-15.2 24-16L24-16Q23.8-16.85 23.8-18L23.8-18Q23.8-19.2 24-20L24-20Q23.8-20.85 23.8-22L23.8-22Q23.8-23.2 24-24L24-24Q23.8-24.85 23.8-26L23.8-26Q23.8-27.2 24-28L24-28 28-28Q28.2-27.2 28.2-26L28.2-26Q28.2-24.85 28-24L28-24Q28.2-23.2 28.2-22L28.2-22Q28.2-20.85 28-20L28-20Q28.2-19.2 28.2-18L28.2-18Q28.2-16.85 28-16L28-16Q28.2-15.2 28.2-14L28.2-14Q28.2-12.85 28-12L28-12Q28.2-11.2 28.2-10L28.2-10Q28.2-8.85 28-8L28-8Q28.2-7.2 28.2-6L28.2-6Q28.2-4.85 28-4L28-4 38-4ZM54-8L58-8Q58.2-7.2 58.2-6L58.2-6Q58.2-4.85 58-4L58-4 56-4Q56.2-3.2 56.2-2L56.2-2Q56.2-0.85 56 0L56 0 46 0Q45.8-0.85 45.8-2L45.8-2Q45.8-3.2 46-4L46-4 44-4Q43.8-4.85 43.8-6L43.8-6Q43.8-7.2 44-8L44-8 42-8Q41.8-8.85 41.8-10L41.8-10Q41.8-11.2 42-12L42-12Q41.8-12.85 41.8-14L41.8-14Q41.8-15.2 42-16L42-16Q41.8-16.85 41.8-18L41.8-18Q41.8-19.2 42-20L42-20 44-20Q43.8-20.85 43.8-22L43.8-22Q43.8-23.2 44-24L44-24 46-24Q45.8-24.85 45.8-26L45.8-26Q45.8-27.2 46-28L46-28 56-28Q56.2-27.2 56.2-26L56.2-26Q56.2-24.85 56-24L56-24 58-24Q58.2-23.2 58.2-22L58.2-22Q58.2-20.85 58-20L58-20 54-20Q53.8-20.85 53.8-22L53.8-22Q53.8-23.2 54-24L54-24 48-24Q48.2-23.2 48.2-22L48.2-22Q48.2-20.85 48-20L48-20 46-20Q46.2-19.2 46.2-18L46.2-18Q46.2-16.85 46-16L46-16Q46.2-15.2 46.2-14L46.2-14Q46.2-12.85 46-12L46-12Q46.2-11.2 46.2-10L46.2-10Q46.2-8.85 46-8L46-8 48-8Q48.2-7.2 48.2-6L48.2-6Q48.2-4.85 48-4L48-4 54-4Q53.8-4.85 53.8-6L53.8-6Q53.8-7.2 54-8L54-8Z" opacity="1" transform="matrix(1,0,0,1,0,0)" fill="#000000" class="wordmark-text-0" data-fill-palette-color="primary" id="text-0"></path></svg></g></svg></g></svg></g></svg></g></svg></g></svg></g><path d="M244.262 53.517L244.262 7.089 11.24 7.089 11.24 240.111 244.262 240.111 244.262 193.683 232.704 193.683 232.704 228.553 22.798 228.553 22.798 18.647 232.704 18.647 232.704 53.517Z" fill="#000000" stroke="transparent" data-fill-palette-color="tertiary"></path></svg></g><defs></defs></svg><rect width="395.52" height="247.2" fill="none" stroke="none" visibility="hidden"></rect></g></svg></g></g></g></g></svg>